<svg width="1408" height="982" viewBox="0 0 1408 982" fill="none" xmlns="http://www.w3.org/2000/svg">
<g clip-path="url(#clip0_1_245)">
<rect width="1408" height="982" fill="#F5EDE7"/>
<g clip-path="url(#clip1_1_245)">
<path d="M1146.31 -179L1146.49 -43.5627L1096.87 -169.552L1130.78 -38.4613L1051.32 -148.131L1116.84 -29.6213L1012.51 -116.085L1105.53 -17.6053L982.904 -75.4267L1097.57 -3.16267L964.341 -28.7093L1093.45 12.7973L958 21.1333L1093.44 29.2773L964.272 70.9653L1097.53 45.232L982.765 117.656L1105.48 59.664L1012.32 158.277L1116.77 71.6667L1051.08 190.269L1130.7 80.4827L1096.6 211.621L1146.39 85.5627L1146.03 221L1162.87 86.5867L1196.27 217.811L1179.09 83.4907L1244.14 202.253L1194.03 76.464L1286.66 175.309L1206.75 65.9547L1321.14 138.667L1216.47 52.616L1345.41 94.6293L1222.55 37.296L1357.96 45.968L1224.64 20.944L1358 -4.26667L1222.58 4.60268L1345.52 -52.9093L1216.51 -10.7147L1321.3 -96.912L1206.82 -24.0373L1286.87 -133.507L1194.11 -34.5307L1244.4 -160.389L1179.18 -41.536L1196.54 -175.88L1162.96 -44.6107L1146.31 -179Z" fill="#FFC3A0"/>
</g>
<g clip-path="url(#clip2_1_245)">
<path d="M580.315 758L580.485 893.437L530.872 767.448L564.781 898.539L485.317 788.869L550.84 907.379L446.515 820.915L539.531 919.395L416.904 861.573L531.571 933.837L398.341 908.291L527.453 949.797L392 958.133L527.44 966.277L398.272 1007.97L531.533 982.232L416.765 1054.66L539.477 996.664L446.32 1095.28L550.768 1008.67L485.077 1127.27L564.701 1017.48L530.6 1148.62L580.395 1022.56L580.035 1158L596.869 1023.59L630.267 1154.81L613.088 1020.49L678.144 1139.25L628.027 1013.46L720.656 1112.31L640.755 1002.95L755.136 1075.67L650.469 989.616L779.413 1031.63L656.555 974.296L791.963 982.968L658.637 957.944L792 932.733L656.576 941.603L779.517 884.091L650.512 926.285L755.301 840.088L640.819 912.963L720.872 803.493L628.109 902.469L678.397 776.611L613.176 895.464L630.544 761.12L596.963 892.389L580.315 758Z" fill="#FFC3A0"/>
</g>
</g>
<defs>
<clipPath id="clip0_1_245">
<rect width="1408" height="982" fill="white"/>
</clipPath>
<clipPath id="clip1_1_245">
<rect width="400" height="400" fill="white" transform="translate(940 -112)"/>
</clipPath>
<clipPath id="clip2_1_245">
<rect width="400" height="400" fill="white" transform="translate(376 694)"/>
</clipPath>
</defs>
</svg>
